<?xml version="1.0" encoding="UTF-8" standalone="no"?>
<!DOCTYPE svg PUBLIC "-//W3C//DTD SVG 1.1//EN" "http://www.w3.org/Graphics/SVG/1.1/DTD/svg11.dtd">
<svg width="100%" height="100%" viewBox="0 0 300 300" version="1.1" xmlns="http://www.w3.org/2000/svg" xmlns:xlink="http://www.w3.org/1999/xlink" xml:space="preserve" xmlns:serif="http://www.serif.com/" style="fill-rule:evenodd;clip-rule:evenodd;stroke-linejoin:round;stroke-miterlimit:2;">
    <path d="M184,132.25C184,132.112 183.888,132 183.75,132L169.25,132C169.112,132 169,132.112 169,132.25L169,132.75C169,132.888 169.112,133 169.25,133L183.75,133C183.888,133 184,132.888 184,132.75L184,132.25Z" style="fill:rgb(235,239,243);"/>
    <g transform="matrix(1,0,0,1,10.8,-59.4)">
        <g transform="matrix(0.636396,-0.636396,0.636396,0.636396,-125.219,234.4)">
            <g transform="matrix(0.957162,0,2.42861e-17,0.949535,43.9759,41.0359)">
                <path d="M163.007,71.454C163.007,66.29 158.848,62.098 153.726,62.098L67.813,62.098C62.69,62.098 58.531,66.29 58.531,71.454L58.531,158.057C58.531,163.22 62.69,167.413 67.813,167.413L153.726,167.413C158.848,167.413 163.007,163.22 163.007,158.057L163.007,71.454Z" style="fill:url(#_Linear1);"/>
            </g>
            <g transform="matrix(0.531757,0,1.34923e-17,0.52752,91.0977,89.4644)">
                <path d="M163.007,71.454C163.007,66.29 158.848,62.098 153.726,62.098L67.813,62.098C62.69,62.098 58.531,66.29 58.531,71.454L58.531,158.057C58.531,163.22 62.69,167.413 67.813,167.413L153.726,167.413C158.848,167.413 163.007,163.22 163.007,158.057L163.007,71.454Z" style="fill:rgb(235,239,243);"/>
            </g>
        </g>
        <g transform="matrix(0.636396,-0.636396,0.636396,0.636396,21.7812,184.4)">
            <g transform="matrix(0.957162,0,2.42861e-17,0.949535,43.9759,41.0359)">
                <path d="M163.007,71.454C163.007,66.29 158.848,62.098 153.726,62.098L67.813,62.098C62.69,62.098 58.531,66.29 58.531,71.454L58.531,158.057C58.531,163.22 62.69,167.413 67.813,167.413L153.726,167.413C158.848,167.413 163.007,163.22 163.007,158.057L163.007,71.454Z" style="fill:url(#_Linear2);"/>
            </g>
            <g transform="matrix(0.531757,0,1.34923e-17,0.52752,91.0977,89.4644)">
                <path d="M163.007,71.454C163.007,66.29 158.848,62.098 153.726,62.098L67.813,62.098C62.69,62.098 58.531,66.29 58.531,71.454L58.531,158.057C58.531,163.22 62.69,167.413 67.813,167.413L153.726,167.413C158.848,167.413 163.007,163.22 163.007,158.057L163.007,71.454Z" style="fill:rgb(235,239,243);"/>
            </g>
        </g>
        <g transform="matrix(0.636396,-0.636396,0.636396,0.636396,-27.2188,233.4)">
            <g transform="matrix(0.957162,0,2.42861e-17,0.949535,43.9759,41.0359)">
                <path d="M163.007,71.454C163.007,66.29 158.848,62.098 153.726,62.098L67.813,62.098C62.69,62.098 58.531,66.29 58.531,71.454L58.531,158.057C58.531,163.22 62.69,167.413 67.813,167.413L153.726,167.413C158.848,167.413 163.007,163.22 163.007,158.057L163.007,71.454Z" style="fill:url(#_Linear3);"/>
            </g>
            <g transform="matrix(0.531757,0,1.34923e-17,0.52752,91.0977,89.4644)">
                <path d="M163.007,71.454C163.007,66.29 158.848,62.098 153.726,62.098L67.813,62.098C62.69,62.098 58.531,66.29 58.531,71.454L58.531,158.057C58.531,163.22 62.69,167.413 67.813,167.413L153.726,167.413C158.848,167.413 163.007,163.22 163.007,158.057L163.007,71.454Z" style="fill:rgb(235,239,243);"/>
            </g>
        </g>
        <g transform="matrix(0.636396,-0.636396,0.636396,0.636396,-75.9188,185)">
            <g transform="matrix(0.957162,0,2.42861e-17,0.949535,43.9759,41.0359)">
                <path d="M163.007,71.454C163.007,66.29 158.848,62.098 153.726,62.098L67.813,62.098C62.69,62.098 58.531,66.29 58.531,71.454L58.531,158.057C58.531,163.22 62.69,167.413 67.813,167.413L153.726,167.413C158.848,167.413 163.007,163.22 163.007,158.057L163.007,71.454Z" style="fill:url(#_Linear4);"/>
            </g>
            <g transform="matrix(0.531757,0,1.34923e-17,0.52752,91.0977,89.4644)">
                <path d="M163.007,71.454C163.007,66.29 158.848,62.098 153.726,62.098L67.813,62.098C62.69,62.098 58.531,66.29 58.531,71.454L58.531,158.057C58.531,163.22 62.69,167.413 67.813,167.413L153.726,167.413C158.848,167.413 163.007,163.22 163.007,158.057L163.007,71.454Z" style="fill:rgb(235,239,243);"/>
            </g>
        </g>
    </g>
    <defs>
        <linearGradient id="_Linear1" x1="0" y1="0" x2="1" y2="0" gradientUnits="userSpaceOnUse" gradientTransform="matrix(104.476,0,0,105.315,58.5315,114.755)"><stop offset="0" style="stop-color:rgb(202,48,88);stop-opacity:1"/><stop offset="1" style="stop-color:rgb(255,153,72);stop-opacity:1"/></linearGradient>
        <linearGradient id="_Linear2" x1="0" y1="0" x2="1" y2="0" gradientUnits="userSpaceOnUse" gradientTransform="matrix(104.476,0,0,105.315,58.5315,114.755)"><stop offset="0" style="stop-color:rgb(255,141,71);stop-opacity:1"/><stop offset="1" style="stop-color:rgb(255,218,46);stop-opacity:1"/></linearGradient>
        <linearGradient id="_Linear3" x1="0" y1="0" x2="1" y2="0" gradientUnits="userSpaceOnUse" gradientTransform="matrix(104.476,0,0,105.315,58.5315,114.755)"><stop offset="0" style="stop-color:rgb(43,213,99);stop-opacity:1"/><stop offset="1" style="stop-color:rgb(0,130,213);stop-opacity:1"/></linearGradient>
        <linearGradient id="_Linear4" x1="0" y1="0" x2="1" y2="0" gradientUnits="userSpaceOnUse" gradientTransform="matrix(104.476,0,0,105.315,58.5315,114.755)"><stop offset="0" style="stop-color:rgb(255,217,45);stop-opacity:1"/><stop offset="1" style="stop-color:rgb(43,214,99);stop-opacity:1"/></linearGradient>
    </defs>
</svg>
